<?xml version="1.0" standalone="no"?>
<!DOCTYPE svg PUBLIC "-//W3C//DTD SVG 20010904//EN"
 "http://www.w3.org/TR/2001/REC-SVG-20010904/DTD/svg10.dtd">
<svg version="1.0" xmlns="http://www.w3.org/2000/svg"
 width="260.000000pt" height="260.000000pt" viewBox="0 0 260.000000 260.000000"
 preserveAspectRatio="xMidYMid meet">
<metadata>
Created by potrace 1.14, written by Peter Selinger 2001-2017
</metadata>
<g transform="translate(0.000000,260.000000) scale(0.100000,-0.100000)"
fill="#000000" stroke="none">
<path d="M1189 2596 c-2 -2 -29 -7 -61 -10 -110 -13 -327 -87 -400 -138 -14
-10 -29 -18 -32 -18 -8 0 -133 -87 -156 -109 -189 -175 -282 -303 -367 -504
-37 -88 -77 -229 -90 -317 -15 -110 -6 -440 14 -473 3 -5 7 -23 10 -40 10 -65
66 -215 115 -308 83 -160 210 -313 360 -434 81 -66 256 -154 373 -190 135 -41
198 -50 350 -50 129 0 173 5 276 29 58 13 92 24 174 56 114 43 279 152 381
250 58 56 194 219 194 233 0 2 15 30 34 62 72 119 142 322 163 471 10 73 10
323 1 384 -53 333 -215 628 -449 820 -30 25 -56 48 -59 51 -11 14 -122 80
-196 117 -73 37 -183 77 -244 88 -14 3 -45 10 -70 16 -43 10 -313 22 -321 14z"/>
</g>
</svg>
